<!-- Executive Resume Template -->
<svg xmlns="http://www.w3.org/2000/svg" viewBox="0 0 300 400" style="background: white; border: 1px solid #e5e7eb;">
  <!-- Header Line -->
  <rect x="0" y="0" width="300" height="8" fill="#8b5cf6"/>
  
  <!-- Name -->
  <text x="40" y="35" font-family="Arial" font-size="18" font-weight="bold" fill="#1e293b">SARAH EXECUTIVE</text>
  <text x="40" y="50" font-family="Arial" font-size="12" fill="#6b7280">Senior Director | Business Strategy</text>
  
  <!-- Summary -->
  <text x="40" y="75" font-family="Arial" font-size="12" font-weight="bold" fill="#8b5cf6">EXECUTIVE SUMMARY</text>
  <rect x="40" y="85" width="220" height="4" fill="#e5e7eb" rx="2"/>
  <rect x="40" y="95" width="200" height="4" fill="#e5e7eb" rx="2"/>
  <rect x="40" y="105" width="210" height="4" fill="#e5e7eb" rx="2"/>
  
  <!-- Core Competencies -->
  <text x="40" y="130" font-family="Arial" font-size="12" font-weight="bold" fill="#8b5cf6">CORE COMPETENCIES</text>
  <rect x="40" y="145" width="90" height="4" fill="#e5e7eb" rx="2"/>
  <rect x="140" y="145" width="100" height="4" fill="#e5e7eb" rx="2"/>
  <rect x="40" y="155" width="85" height="4" fill="#e5e7eb" rx="2"/>
  <rect x="140" y="155" width="95" height="4" fill="#e5e7eb" rx="2"/>
  
  <!-- Professional Experience -->
  <text x="40" y="180" font-family="Arial" font-size="12" font-weight="bold" fill="#8b5cf6">PROFESSIONAL EXPERIENCE</text>
  <text x="40" y="195" font-family="Arial" font-size="10" font-weight="bold" fill="#1e293b">Chief Strategy Officer</text>
  <text x="180" y="195" font-family="Arial" font-size="9" fill="#6b7280">2020-Present</text>
  <rect x="40" y="205" width="200" height="3" fill="#e5e7eb" rx="1.5"/>
  <rect x="40" y="215" width="180" height="3" fill="#e5e7eb" rx="1.5"/>
  
  <text x="40" y="235" font-family="Arial" font-size="10" font-weight="bold" fill="#1e293b">Director of Operations</text>
  <text x="170" y="235" font-family="Arial" font-size="9" fill="#6b7280">2018-2020</text>
  <rect x="40" y="245" width="190" height="3" fill="#e5e7eb" rx="1.5"/>
  <rect x="40" y="255" width="170" height="3" fill="#e5e7eb" rx="1.5"/>
  
  <!-- Education -->
  <text x="40" y="280" font-family="Arial" font-size="12" font-weight="bold" fill="#8b5cf6">EDUCATION</text>
  <rect x="40" y="290" width="150" height="4" fill="#e5e7eb" rx="2"/>
  <rect x="40" y="300" width="130" height="4" fill="#e5e7eb" rx="2"/>
</svg>
