<!-- Professional Resume Template -->
<svg xmlns="http://www.w3.org/2000/svg" viewBox="0 0 300 400" style="background: white; border: 1px solid #e5e7eb;">
  <!-- Header -->
  <rect x="20" y="20" width="260" height="80" fill="#8b5cf6" rx="8"/>
  <circle cx="60" cy="60" r="20" fill="white" opacity="0.9"/>
  <rect x="90" y="35" width="140" height="12" fill="white" opacity="0.9" rx="6"/>
  <rect x="90" y="55" width="100" height="8" fill="white" opacity="0.8" rx="4"/>
  <rect x="90" y="70" width="120" height="6" fill="white" opacity="0.7" rx="3"/>
  
  <!-- Experience -->
  <text x="25" y="125" font-family="Arial" font-size="14" font-weight="bold" fill="#6b46c1">EXPERIENCE</text>
  <rect x="25" y="135" width="200" height="4" fill="#e5e7eb" rx="2"/>
  <rect x="25" y="145" width="180" height="4" fill="#e5e7eb" rx="2"/>
  <rect x="25" y="155" width="160" height="4" fill="#e5e7eb" rx="2"/>
  
  <!-- Skills -->
  <text x="25" y="185" font-family="Arial" font-size="14" font-weight="bold" fill="#6b46c1">SKILLS</text>
  <rect x="25" y="195" width="80" height="20" fill="#ede9fe" rx="10"/>
  <rect x="115" y="195" width="70" height="20" fill="#ede9fe" rx="10"/>
  <rect x="195" y="195" width="75" height="20" fill="#ede9fe" rx="10"/>
  
  <!-- Education -->
  <text x="25" y="235" font-family="Arial" font-size="14" font-weight="bold" fill="#6b46c1">EDUCATION</text>
  <rect x="25" y="245" width="170" height="4" fill="#e5e7eb" rx="2"/>
  <rect x="25" y="255" width="150" height="4" fill="#e5e7eb" rx="2"/>
</svg>
